// Dipole Antenna
// Generated by VectorEM geometry generator
// Length: 499.65 mm, Design freq: 0.300 GHz

lc = 0.09993081933333334;
lc_fine = 0.024982704833333334;

// Simulation box
Point(1) = {-0.49965409666666666, -0.49965409666666666, -0.49965409666666666, lc};
Point(2) = { 0.49965409666666666, -0.49965409666666666, -0.49965409666666666, lc};
Point(3) = { 0.49965409666666666,  0.49965409666666666, -0.49965409666666666, lc};
Point(4) = {-0.49965409666666666,  0.49965409666666666, -0.49965409666666666, lc};
Point(5) = {-0.49965409666666666, -0.49965409666666666,  0.49965409666666666, lc};
Point(6) = { 0.49965409666666666, -0.49965409666666666,  0.49965409666666666, lc};
Point(7) = { 0.49965409666666666,  0.49965409666666666,  0.49965409666666666, lc};
Point(8) = {-0.49965409666666666,  0.49965409666666666,  0.49965409666666666, lc};

// Box edges
Line(1) = {1, 2};
Line(2) = {2, 3};
Line(3) = {3, 4};
Line(4) = {4, 1};
Line(5) = {5, 6};
Line(6) = {6, 7};
Line(7) = {7, 8};
Line(8) = {8, 5};
Line(9) = {1, 5};
Line(10) = {2, 6};
Line(11) = {3, 7};
Line(12) = {4, 8};

// Box faces
Curve Loop(1) = {1, 2, 3, 4};
Plane Surface(1) = {1};
Curve Loop(2) = {5, 6, 7, 8};
Plane Surface(2) = {2};
Curve Loop(3) = {1, 10, -5, -9};
Plane Surface(3) = {3};
Curve Loop(4) = {2, 11, -6, -10};
Plane Surface(4) = {4};
Curve Loop(5) = {3, 12, -7, -11};
Plane Surface(5) = {5};
Curve Loop(6) = {4, 9, -8, -12};
Plane Surface(6) = {6};

// Dipole (simplified as line along z-axis)
Point(9) = {0, 0, -0.24982704833333333, lc_fine};
Point(10) = {0, 0, 0, lc_fine};  // Feed point
Point(11) = {0, 0, 0.24982704833333333, lc_fine};

Line(13) = {9, 10};  // Lower arm
Line(14) = {10, 11}; // Upper arm

// Volume
Surface Loop(1) = {1, 2, 3, 4, 5, 6};
Volume(1) = {1};

// Embed dipole in volume
Line{13, 14} In Volume{1};

// Physical groups
Physical Line("Dipole", 1) = {13, 14};
Physical Line("FeedGap", 2) = {10};  // Node at feed point
Physical Surface("ABC", 3) = {1, 2, 3, 4, 5, 6};
Physical Volume("Air", 100) = {1};

// Mesh settings
Mesh.Algorithm3D = 4;
Mesh.Optimize = 1;
